<svg
  id="l1BaAafnKJ"
  viewBox="0 0 540 182.8125"
  height="182.8125"
  width="540"
  style="
    width: 540px;
    height: 182.812px;
    position: absolute;
    top: 50%;
    left: 50%;
    z-index: 0;
    cursor: pointer;
    transform: translate(-50%, -50%) scale(0.302222);
  "
>
  <defs id="SvgjsDefs1161"></defs>
  <g
    id="SvgjsG1162"
    featurekey="symbolContainer"
    transform="matrix(2.322903520825146,0,0,2.322903520825146,0,0)"
    fill="#111111"
  >
    <path
      xmlns="http://www.w3.org/2000/svg"
      d="M116.1 78.7H0V0h116.1zM2 76.7h112.1V2H2z"
    ></path>
  </g>
  <g
    id="SvgjsG1163"
    featurekey="monogramFeature-0"
    transform="matrix(2.707149433938259,0,0,2.707149433938259,74.44212856729189,-14.429259321832959)"
    fill="#111111"
  >
    <path
      d="M35.67 48.06 l4.86 5.25 c0.36 0.42 0.45 0.84 0.03 1.26 c-3.66 3.75 -9.03 6.21 -14.88 6.21 c-12.03 0 -21.78 -9.51 -21.78 -21.6 c0 -12.15 9.75 -21.66 21.78 -21.66 c5.85 0 11.22 2.4 14.88 6.21 c0.42 0.45 0.33 0.84 -0.03 1.26 l-4.86 5.25 c-0.33 0.42 -0.84 0.42 -1.26 0.06 c-2.31 -1.98 -5.22 -3.27 -8.82 -3.27 c-6.54 0 -11.67 5.22 -11.67 12.15 c0 6.87 5.13 12.09 11.67 12.09 c3.6 0 6.51 -1.29 8.82 -3.27 c0.42 -0.36 0.93 -0.36 1.26 0.06 z"
    ></path>
  </g>
  <g
    id="SvgjsG1164"
    featurekey="nameFeature-0"
    transform="matrix(2.3347029858519908,0,0,2.3347029858519908,286.82480474079796,14.78520953403552)"
    fill="#111111"
  >
    <path
      d="M12.12 40.56 c-6.2 0 -10.76 -4.64 -10.76 -10.72 c0 -6.04 4.56 -10.64 10.72 -10.64 c5.6 0 9.08 3.6 9.88 6.64 l-4.92 1.4 c-0.44 -1.68 -2.32 -3.36 -4.96 -3.36 c-3.36 0 -5.52 2.76 -5.52 5.96 c0 3.16 2.16 6 5.52 6 c2.64 0 4.52 -1.56 4.96 -3.24 l4.92 1.36 c-0.8 3.08 -4.28 6.6 -9.84 6.6 z M36.75 19.2 c5.28 0 7.96 3.56 7.96 8.96 l0 11.84 l-5.28 0 l0 -10.84 c0 -3.08 -1.4 -5.04 -4.32 -5.04 c-2.96 0 -4.88 2.32 -4.88 5.88 l0 10 l-5.28 0 l0 -29.2 l5.28 0 l0 11.52 c1.4 -1.8 3.6 -3.12 6.52 -3.12 z M58.62 40.56 c-6.48 0 -11 -4.28 -11 -10.68 c0 -6.04 4.24 -10.68 10.6 -10.68 c6.64 0 10.44 4.6 10.44 10.4 c0 0.64 0 1.24 -0.12 1.88 l-15.72 0 c0.36 2.6 2.2 4.6 5.88 4.6 c2.56 0 4.12 -1.16 4.92 -2.68 l4.76 1.4 c-1.16 2.64 -4.44 5.76 -9.76 5.76 z M52.82 28.16 l10.68 0 c-0.24 -2.48 -2.16 -4.48 -5.32 -4.48 c-3.08 0 -5.08 2.16 -5.36 4.48 z M79.77 40.56 c-5 0 -8.84 -2.96 -9.84 -6.24 l4.76 -1.4 c0.68 1.92 2.6 3.36 5.28 3.36 c2.04 0 3.36 -0.96 3.36 -2.08 c0 -1 -0.76 -1.56 -2.24 -2 l-5.16 -1.52 c-2.88 -0.84 -5 -2.52 -5 -5.4 c0 -3.4 3.68 -6.08 8.12 -6.08 c4.36 0 7.68 2.08 8.96 5.12 l-4.68 1.36 c-0.72 -1.28 -2.2 -2.36 -4.32 -2.36 c-1.64 0 -2.88 0.88 -2.88 1.84 c0 0.8 0.56 1.28 1.68 1.6 l5.04 1.44 c3.04 0.88 5.68 2.12 5.68 5.76 c0 3.8 -3.6 6.6 -8.76 6.6 z M99.67999999999999 40.56 c-5 0 -8.84 -2.96 -9.84 -6.24 l4.76 -1.4 c0.68 1.92 2.6 3.36 5.28 3.36 c2.04 0 3.36 -0.96 3.36 -2.08 c0 -1 -0.76 -1.56 -2.24 -2 l-5.16 -1.52 c-2.88 -0.84 -5 -2.52 -5 -5.4 c0 -3.4 3.68 -6.08 8.12 -6.08 c4.36 0 7.68 2.08 8.96 5.12 l-4.68 1.36 c-0.72 -1.28 -2.2 -2.36 -4.32 -2.36 c-1.64 0 -2.88 0.88 -2.88 1.84 c0 0.8 0.56 1.28 1.68 1.6 l5.04 1.44 c3.04 0.88 5.68 2.12 5.68 5.76 c0 3.8 -3.6 6.6 -8.76 6.6 z"
    ></path>
  </g>
  <g
    id="SvgjsG1165"
    featurekey="sloganFeature-0"
    transform="matrix(1.6301910709751626,0,0,1.6301910709751626,288.8262627709256,110.22957185159306)"
    fill="#111111"
  >
    <path
      d="M8.08 20.28 c-4.22 0 -7.36 -3.16 -7.36 -7.3 c0 -4.12 3.14 -7.26 7.3 -7.26 c3.78 0 6.14 2.32 6.78 4.54 l-2.68 0.66 c-0.46 -1.36 -1.96 -2.62 -4.08 -2.62 c-2.76 0 -4.52 2.14 -4.52 4.66 s1.76 4.74 4.52 4.74 c2.12 0 3.62 -1.22 4.08 -2.6 l2.66 0.68 c-0.64 2.24 -3 4.5 -6.7 4.5 z M22.275 9.6 c2.64 0 3.98 1.78 3.98 4.48 l0 5.92 l-2.64 0 l0 -5.42 c0 -1.54 -0.7 -2.52 -2.16 -2.52 c-1.48 0 -2.44 1.16 -2.44 2.94 l0 5 l-2.64 0 l0 -14.6 l2.64 0 l0 5.76 c0.7 -0.9 1.8 -1.56 3.26 -1.56 z M33.21 20.28 c-3.24 0 -5.5 -2.14 -5.5 -5.34 c0 -3.02 2.12 -5.34 5.3 -5.34 c3.32 0 5.22 2.3 5.22 5.2 c0 0.32 0 0.62 -0.06 0.94 l-7.86 0 c0.18 1.3 1.1 2.3 2.94 2.3 c1.28 0 2.06 -0.58 2.46 -1.34 l2.38 0.7 c-0.58 1.32 -2.22 2.88 -4.88 2.88 z M30.310000000000002 14.08 l5.34 0 c-0.12 -1.24 -1.08 -2.24 -2.66 -2.24 c-1.54 0 -2.54 1.08 -2.68 2.24 z M43.785000000000004 20.28 c-2.5 0 -4.42 -1.48 -4.92 -3.12 l2.38 -0.7 c0.34 0.96 1.3 1.68 2.64 1.68 c1.02 0 1.68 -0.48 1.68 -1.04 c0 -0.5 -0.38 -0.78 -1.12 -1 l-2.58 -0.76 c-1.44 -0.42 -2.5 -1.26 -2.5 -2.7 c0 -1.7 1.84 -3.04 4.06 -3.04 c2.18 0 3.84 1.04 4.48 2.56 l-2.34 0.68 c-0.36 -0.64 -1.1 -1.18 -2.16 -1.18 c-0.82 0 -1.44 0.44 -1.44 0.92 c0 0.4 0.28 0.64 0.84 0.8 l2.52 0.72 c1.52 0.44 2.84 1.06 2.84 2.88 c0 1.9 -1.8 3.3 -4.38 3.3 z M53.74 20.28 c-2.5 0 -4.42 -1.48 -4.92 -3.12 l2.38 -0.7 c0.34 0.96 1.3 1.68 2.64 1.68 c1.02 0 1.68 -0.48 1.68 -1.04 c0 -0.5 -0.38 -0.78 -1.12 -1 l-2.58 -0.76 c-1.44 -0.42 -2.5 -1.26 -2.5 -2.7 c0 -1.7 1.84 -3.04 4.06 -3.04 c2.18 0 3.84 1.04 4.48 2.56 l-2.34 0.68 c-0.36 -0.64 -1.1 -1.18 -2.16 -1.18 c-0.82 0 -1.44 0.44 -1.44 0.92 c0 0.4 0.28 0.64 0.84 0.8 l2.52 0.72 c1.52 0.44 2.84 1.06 2.84 2.88 c0 1.9 -1.8 3.3 -4.38 3.3 z M70.99 20.28 c-4.24 0 -7.36 -3.16 -7.36 -7.3 c0 -4.12 3.12 -7.26 7.36 -7.26 c4.22 0 7.34 3.14 7.34 7.26 c0 4.14 -3.12 7.3 -7.34 7.3 z M70.99 17.740000000000002 c2.76 0 4.58 -2.08 4.58 -4.76 c0 -2.62 -1.82 -4.72 -4.58 -4.72 c-2.78 0 -4.58 2.1 -4.58 4.72 c0 2.68 1.8 4.76 4.58 4.76 z M85.825 9.6 c2.64 0 3.98 1.78 3.98 4.48 l0 5.92 l-2.64 0 l0 -5.42 c0 -1.54 -0.7 -2.52 -2.16 -2.52 c-1.48 0 -2.44 1.16 -2.44 2.94 l0 5 l-2.64 0 l0 -10.12 l2.64 0 l0 1.28 c0.7 -0.9 1.8 -1.56 3.26 -1.56 z M91.88 20 l0 -14.6 l2.64 0 l0 14.6 l-2.64 0 z M98.035 8.46 c-0.88 0 -1.58 -0.68 -1.58 -1.56 c0 -0.84 0.7 -1.52 1.58 -1.52 s1.58 0.68 1.58 1.52 c0 0.88 -0.7 1.56 -1.58 1.56 z M96.675 20 l0 -10.12 l2.66 0 l0 10.12 l-2.66 0 z M107.45 9.6 c2.64 0 3.98 1.78 3.98 4.48 l0 5.92 l-2.64 0 l0 -5.42 c0 -1.54 -0.7 -2.52 -2.16 -2.52 c-1.48 0 -2.44 1.16 -2.44 2.94 l0 5 l-2.64 0 l0 -10.12 l2.64 0 l0 1.28 c0.7 -0.9 1.8 -1.56 3.26 -1.56 z M118.38499999999999 20.28 c-3.24 0 -5.5 -2.14 -5.5 -5.34 c0 -3.02 2.12 -5.34 5.3 -5.34 c3.32 0 5.22 2.3 5.22 5.2 c0 0.32 0 0.62 -0.06 0.94 l-7.86 0 c0.18 1.3 1.1 2.3 2.94 2.3 c1.28 0 2.06 -0.58 2.46 -1.34 l2.38 0.7 c-0.58 1.32 -2.22 2.88 -4.88 2.88 z M115.485 14.08 l5.34 0 c-0.12 -1.24 -1.08 -2.24 -2.66 -2.24 c-1.54 0 -2.54 1.08 -2.68 2.24 z"
    ></path>
  </g>
</svg>
